<html>
<head>
<meta charset="UTF-8">
<meta name="viewport" content="width=device-width, initial-scale=1.0"/>

<style>
.comment
{
    padding-left: 20px;
    margin-top: 4px;
    margin-right: 4px;
    margin-bottom: 4px;
    border: 2px #000 solid;
}
.submission
{
    border: 4px #00f solid;
    padding-left: 20px;
}
.hidden
{
    display: none;
}
</style>
</head>
<body><div class="submission" id="t3_6jedym">
    <p class="userinfo">
        <a href="https://www.reddit.com/u/V2atX">V2atX</a>
        <span class="score"> | 25 points</span>
        <span class="timestamp"> | Jun 25 2017 13:44:56</span>
    </p>
    <strong>[TV] Dark Matter S02 [1080p] BluRay FLAC [x264] [17.98GB]</strong>
    <p><p><a href="http://www.imdb.com/title/tt4159076/">Dark Matter</a></p>
<p>Video: AVC H.264 @ 2152 - 4524 kb/s (3456  kb/s average) (CRF20, Film Preset, Ultralight Denoise)<br>
Audio: FLAC 5.1 @ 1052 - 1205 kb/s (1133 kb/s average) (Dolby TrueHD source was 24-bit, which I reduced to 16-bit for a better filesize)<br>
Subs: UTF-8, non HI (I OCR'ed these myself and they should be fine. But I wasn't able to watch everything once, so please tell me if you notice something wrong)</p>
<p>Links protected by captcha: http://links.snahp.it/674DarkMatterS02</p>
<p>Mirror on 1fichier included! Register a free account for faster downloading.<br>
I suggest using <a href="https://board.jdownloader.org/showthread.php?t=54725">JDownloader 2 for easier downloading.</a> (Copy + paste the link inside, as the redirect is broken.)</p>
<p>Complete MediaInfo of a relatively average sized episode:</p>
<pre><code>General
Unique ID                                : 205192704448065882180574108129875088731 (0x9A5EAD6935DB80BCBD542CC3FE6E555B)
Complete name                            : Dark Matter - S02E02 - Kill Them All.mkv
Format                                   : Matroska
Format version                           : Version 4 / Version 2
File size                                : 1.40 GiB
Duration                                 : 43 min 8 s
Overall bit rate mode                    : Variable
Overall bit rate                         : 4 651 kb/s
Encoded date                             : UTC 2017-06-24 15:47:35
Writing application                      : mkvmerge v10.0.0 ('To Drown In You') 64bit
Writing library                          : libebml v1.3.4 + libmatroska v1.4.5

Video
ID                                       : 1
Format                                   : AVC
Format/Info                              : Advanced Video Codec
Format profile                           : High@L4.1
Format settings, CABAC                   : Yes
Format settings, ReFrames                : 4 frames
Codec ID                                 : V_MPEG4/ISO/AVC
Duration                                 : 43 min 8 s
Bit rate                                 : 3 467 kb/s
Width                                    : 1 920 pixels
Height                                   : 1 080 pixels
Display aspect ratio                     : 16:9
Frame rate mode                          : Constant
Frame rate                               : 23.976 FPS
Color space                              : YUV
Chroma subsampling                       : 4:2:0
Bit depth                                : 8 bits
Scan type                                : Progressive
Bits/(Pixel*Frame)                       : 0.070
Stream size                              : 1.04 GiB (75%)
Writing library                          : x264 core 148 r2708 86b7198
Encoding settings                        : cabac=1 / ref=4 / deblock=1:-1:-1 / analyse=0x3:0x133 / me=umh / subme=10 / psy=1 / psy_rd=1.00:0.15 / mixed_ref=1 / me_range=24 / chroma_me=1 / trellis=2 / 8x8dct=1 / cqm=0 / deadzone=21,11 / fast_pskip=1 / chroma_qp_offset=-3 / threads=12 / lookahead_threads=2 / sliced_threads=0 / nr=0 / decimate=1 / interlaced=0 / bluray_compat=0 / constrained_intra=0 / bframes=8 / b_pyramid=2 / b_adapt=2 / b_bias=0 / direct=3 / weightb=1 / open_gop=0 / weightp=2 / keyint=240 / keyint_min=24 / scenecut=40 / intra_refresh=0 / rc_lookahead=60 / rc=crf / mbtree=1 / crf=20.0 / qcomp=0.60 / qpmin=0 / qpmax=69 / qpstep=4 / vbv_maxrate=62500 / vbv_bufsize=78125 / crf_max=0.0 / nal_hrd=none / filler=0 / ip_ratio=1.40 / aq=1:1.00
Default                                  : Yes
Forced                                   : No
Color range                              : Limited
Color primaries                          : BT.709
Transfer characteristics                 : BT.709
Matrix coefficients                      : BT.709

Audio
ID                                       : 2
Format                                   : FLAC
Format/Info                              : Free Lossless Audio Codec
Codec ID                                 : A_FLAC
Duration                                 : 43 min 7 s
Bit rate mode                            : Variable
Bit rate                                 : 1 183 kb/s
Channel(s)                               : 6 channels
Channel positions                        : Front: L C R, Side: L R, LFE
Sampling rate                            : 48.0 kHz
Frame rate                               : 11.719 FPS (4096 spf)
Bit depth                                : 16 bits
Stream size                              : 365 MiB (25%)
Writing library                          : libFLAC 1.2.1 (UTC 2007-09-17)
Language                                 : English
Default                                  : Yes
Forced                                   : No

Text
ID                                       : 3
Format                                   : UTF-8
Codec ID                                 : S_TEXT/UTF8
Codec ID/Info                            : UTF-8 Plain Text
Duration                                 : 42 min 44 s
Bit rate                                 : 64 b/s
Count of elements                        : 707
Stream size                              : 20.3 KiB (0%)
Language                                 : English
Default                                  : Yes
Forced                                   : No

Menu
00:00:00.000                             : :Chapter 1
00:01:31.425                             : :Chapter 2
00:10:16.950                             : :Chapter 3
00:16:16.309                             : :Chapter 4
00:22:45.698                             : :Chapter 5
00:29:57.796                             : :Chapter 6
00:40:28.426                             : :Chapter 7
</code></pre>
<p><a href="https://www.reddit.com/r/megalinks/comments/6htiyd/tv_dark_matter_s01_1080p_bluray_flac_x264_1441gb/">S01 here!!</a></p></p>
    <p class="toolbar">
        <a href="https://www.reddit.com/r/megalinks/comments/6jedym">permalink</a>
    </p>
</div>

</body>

<script>
function toggle_collapse(comment_div)
{
    var button = comment_div.getElementsByClassName("toggle_hide_button")[0];
    var collapsible = comment_div.getElementsByClassName("collapsible")[0];
    if (collapsible.classList.contains("hidden"))
    {
        collapsible.classList.remove("hidden");
        button.innerText = "[-]";
    }
    else
    {
        collapsible.classList.add("hidden");
        button.innerText = "[+]";
    }
}
</script>
</html>
